<svg width="40" height="40" viewBox="0 0 40 40" fill="none" xmlns="http://www.w3.org/2000/svg">
<path d="M22.455 39.8093C31.849 38.3956 39.0521 30.2903 39.0521 20.5019C39.0521 9.71765 30.3103 0.97583 19.5261 0.97583C8.74182 0.97583 0 9.71765 0 20.5019C0 30.2903 7.20317 38.3975 16.5972 39.8093V26.3597H13.6682C12.8915 26.3597 12.1465 26.0511 11.5972 25.5019C11.0479 24.9526 10.7393 24.2076 10.7393 23.4308C10.7393 22.654 11.0479 21.909 11.5972 21.3598C12.1465 20.8105 12.8915 20.5019 13.6682 20.5019H16.5972V16.5967C16.5972 14.7842 17.3172 13.0459 18.5988 11.7642C19.8805 10.4826 21.6188 9.76256 23.4313 9.76256H24.4076C25.1844 9.76256 25.9294 10.0711 26.4786 10.6204C27.0279 11.1697 27.3365 11.9147 27.3365 12.6915C27.3365 13.4683 27.0279 14.2132 26.4786 14.7625C25.9294 15.3118 25.1844 15.6204 24.4076 15.6204H23.4313C23.1723 15.6204 22.924 15.7232 22.7409 15.9063C22.5578 16.0894 22.455 16.3378 22.455 16.5967V20.5019H25.3839C26.1607 20.5019 26.9057 20.8105 27.4549 21.3598C28.0042 21.909 28.3128 22.654 28.3128 23.4308C28.3128 24.2076 28.0042 24.9526 27.4549 25.5019C26.9057 26.0511 26.1607 26.3597 25.3839 26.3597H22.455V39.8093Z" fill="white" fill-opacity="0.75"/>
</svg>
