<svg width="58" height="59" viewBox="0 0 58 59" fill="none" xmlns="http://www.w3.org/2000/svg">
<path d="M28.9167 27.9583C27.3143 27.9583 25.7776 27.3218 24.6446 26.1888C23.5115 25.0557 22.875 23.519 22.875 21.9167C22.875 20.3143 23.5115 18.7776 24.6446 17.6446C25.7776 16.5115 27.3143 15.875 28.9167 15.875C30.519 15.875 32.0557 16.5115 33.1888 17.6446C34.3218 18.7776 34.9583 20.3143 34.9583 21.9167C34.9583 22.7101 34.8021 23.4957 34.4984 24.2287C34.1948 24.9617 33.7498 25.6277 33.1888 26.1888C32.6277 26.7498 31.9617 27.1948 31.2287 27.4984C30.4957 27.8021 29.7101 27.9583 28.9167 27.9583ZM28.9167 5C24.4301 5 20.1273 6.78229 16.9548 9.95478C13.7823 13.1273 12 17.4301 12 21.9167C12 34.6042 28.9167 53.3333 28.9167 53.3333C28.9167 53.3333 45.8333 34.6042 45.8333 21.9167C45.8333 17.4301 44.051 13.1273 40.8786 9.95478C37.7061 6.78229 33.4032 5 28.9167 5Z" fill="#E24545"/>
</svg>
