<svg width="16" height="17" viewBox="0 0 16 17" fill="none" xmlns="http://www.w3.org/2000/svg">
<path d="M6.5 6.5C6.5 6.10218 6.65804 5.72064 6.93934 5.43934C7.22064 5.15804 7.60218 5 8 5C8.39782 5 8.77936 5.15804 9.06066 5.43934C9.34196 5.72064 9.5 6.10218 9.5 6.5C9.5 6.89782 9.34196 7.27936 9.06066 7.56066C8.77936 7.84196 8.39782 8 8 8C7.60218 8 7.22064 7.84196 6.93934 7.56066C6.65804 7.27936 6.5 6.89782 6.5 6.5Z" fill="#27709A"/>
<path fill-rule="evenodd" clip-rule="evenodd" d="M7.89206 2.16669C6.86245 2.16673 5.8705 2.55396 5.11318 3.25151C4.35586 3.94905 3.88856 4.90588 3.80406 5.93202C3.70975 7.07579 4.06299 8.21152 4.78939 9.10002L7.18606 12.0307C7.28473 12.1512 7.40893 12.2483 7.5497 12.315C7.69047 12.3817 7.84429 12.4163 8.00006 12.4163C8.15582 12.4163 8.30964 12.3817 8.45041 12.315C8.59118 12.2483 8.71538 12.1512 8.81406 12.0307L11.2107 9.10002C11.9372 8.21155 12.2904 7.07579 12.1961 5.93202C12.1116 4.90588 11.6442 3.94905 10.8869 3.25151C10.1296 2.55396 9.13767 2.16673 8.10806 2.16669H7.89206ZM8.00006 4.00002C7.33701 4.00002 6.70113 4.26341 6.23229 4.73225C5.76345 5.20109 5.50006 5.83698 5.50006 6.50002C5.50006 7.16306 5.76345 7.79895 6.23229 8.26779C6.70113 8.73663 7.33701 9.00002 8.00006 9.00002C8.6631 9.00002 9.29898 8.73663 9.76782 8.26779C10.2367 7.79895 10.5001 7.16306 10.5001 6.50002C10.5001 5.83698 10.2367 5.20109 9.76782 4.73225C9.29898 4.26341 8.6631 4.00002 8.00006 4.00002Z" fill="#27709A"/>
<path d="M4.88997 10.72C5.00843 10.7793 5.09855 10.8831 5.14055 11.0087C5.18254 11.1343 5.17299 11.2714 5.11397 11.39L4.14263 13.3334H11.8573L10.886 11.39C10.856 11.3312 10.838 11.2671 10.833 11.2013C10.828 11.1355 10.836 11.0693 10.8567 11.0067C10.8774 10.944 10.9102 10.886 10.9534 10.8361C10.9966 10.7862 11.0492 10.7453 11.1082 10.7159C11.1673 10.6864 11.2316 10.6689 11.2974 10.6644C11.3632 10.6599 11.4293 10.6684 11.4918 10.6896C11.5543 10.7107 11.612 10.744 11.6616 10.7876C11.7112 10.8311 11.7516 10.8841 11.7806 10.9434L13.114 13.61C13.152 13.6862 13.17 13.7709 13.1661 13.8561C13.1622 13.9412 13.1367 14.0239 13.0919 14.0963C13.0471 14.1688 12.9845 14.2286 12.91 14.2701C12.8356 14.3116 12.7518 14.3333 12.6666 14.3334H3.3333C3.24816 14.3332 3.16445 14.3114 3.09012 14.2699C3.01579 14.2283 2.9533 14.1685 2.90856 14.0961C2.86382 14.0236 2.83833 13.9409 2.83449 13.8559C2.83066 13.7708 2.8486 13.6862 2.88663 13.61L4.21997 10.9434C4.2792 10.8249 4.38302 10.7348 4.50864 10.6928C4.63425 10.6508 4.7714 10.661 4.88997 10.72Z" fill="#27709A"/>
</svg>
