<svg width="20" height="21" viewBox="0 0 20 21" fill="none" xmlns="http://www.w3.org/2000/svg">
<g clip-path="url(#clip0_450_159)">
<path d="M13.3333 4.86333V14.6667H14.7917C15.3667 14.6667 15.8333 15.1333 15.8333 15.7083V17.1667H16.6667C16.8877 17.1667 17.0996 17.2545 17.2559 17.4107C17.4122 17.567 17.5 17.779 17.5 18C17.5 18.221 17.4122 18.433 17.2559 18.5892C17.0996 18.7455 16.8877 18.8333 16.6667 18.8333H3.33333C3.11232 18.8333 2.90036 18.7455 2.74408 18.5892C2.5878 18.433 2.5 18.221 2.5 18C2.5 17.779 2.5878 17.567 2.74408 17.4107C2.90036 17.2545 3.11232 17.1667 3.33333 17.1667H4.16667V15.7083C4.16667 15.1333 4.63333 14.6667 5.20833 14.6667H6.66667V4.86333L5.92667 3.38333C5.86645 3.26293 5.83599 3.12984 5.83784 2.99524C5.83969 2.86063 5.87381 2.72843 5.93732 2.60974C6.00083 2.49104 6.09188 2.38931 6.20284 2.31309C6.3138 2.23686 6.44142 2.18836 6.575 2.17166L9.87083 1.75999C9.95661 1.74927 10.0434 1.74927 10.1292 1.75999L13.425 2.17166C14.0017 2.24333 14.3333 2.86333 14.0733 3.38333L13.3333 4.86333Z" fill="#31587A"/>
</g>
<defs>
<clipPath id="clip0_450_159">
<rect width="20" height="20" fill="white" transform="translate(0 0.5)"/>
</clipPath>
</defs>
</svg>
