<svg width="39" height="34" viewBox="0 0 39 34" fill="none" xmlns="http://www.w3.org/2000/svg">
<path d="M4.03155 2.73146C4.38508 2.69037 4.74311 2.74669 5.06695 2.89433C5.39079 3.04197 5.66812 3.27531 5.86896 3.56913C8.75101 7.7848 12.211 9.53824 16.0518 9.93658C16.2393 8.29443 16.6825 6.67182 17.5163 5.24251C18.7386 3.14541 20.7263 1.60285 23.5654 1.03269C27.4902 0.243836 30.4777 1.66533 32.2096 3.40511L35.7087 2.75098C36.0748 2.68238 36.453 2.71994 36.7985 2.85925C37.144 2.99856 37.4424 3.2338 37.6586 3.5372C37.8747 3.8406 37.9996 4.1995 38.0184 4.57155C38.0372 4.9436 37.9492 5.31327 37.7648 5.63694L34.4063 11.5377C34.7129 20.053 32.3463 25.9968 27.3008 30.0914C24.6257 32.2627 20.7947 33.4948 16.5907 33.8755C12.3536 34.2582 7.56382 33.7955 2.80337 32.4052C2.39662 32.2866 2.03951 32.0389 1.78591 31.6994C1.53232 31.36 1.39601 30.9473 1.39755 30.5236C1.39909 30.0999 1.53841 29.6882 1.79447 29.3507C2.05053 29.0131 2.40944 28.768 2.81703 28.6523C5.21093 27.9709 7.03466 27.3831 8.68071 26.3541C6.33954 25.1122 4.61538 23.4877 3.39501 21.6366C1.70014 19.0631 1.0714 16.1927 0.946436 13.6055C0.82147 11.0183 1.19442 8.62052 1.58884 6.89246C1.81339 5.9064 2.07504 4.91838 2.43628 3.97332C2.5637 3.64018 2.77993 3.34831 3.06151 3.12938C3.34308 2.91046 3.67729 2.77284 4.03155 2.73146Z" fill="white" fill-opacity="0.75"/>
</svg>
