<svg width="37" height="36" viewBox="0 0 37 36" fill="none" xmlns="http://www.w3.org/2000/svg">
<path fill-rule="evenodd" clip-rule="evenodd" d="M30.1778 0.85791C31.7314 0.85791 33.2213 1.47507 34.3199 2.57363C35.4184 3.67218 36.0356 5.16214 36.0356 6.71573V30.147C36.0356 31.7006 35.4184 33.1906 34.3199 34.2891C33.2213 35.3877 31.7314 36.0048 30.1778 36.0048H6.74649C5.1929 36.0048 3.70294 35.3877 2.60439 34.2891C1.50583 33.1906 0.888672 31.7006 0.888672 30.147V6.71573C0.888672 5.16214 1.50583 3.67218 2.60439 2.57363C3.70294 1.47507 5.1929 0.85791 6.74649 0.85791H30.1778ZM10.6517 14.5262C10.1338 14.5262 9.63719 14.7319 9.271 15.0981C8.90482 15.4642 8.6991 15.9609 8.6991 16.4788V26.2418C8.6991 26.7597 8.90482 27.2563 9.271 27.6225C9.63719 27.9887 10.1338 28.1944 10.6517 28.1944C11.1696 28.1944 11.6662 27.9887 12.0324 27.6225C12.3986 27.2563 12.6043 26.7597 12.6043 26.2418V16.4788C12.6043 15.9609 12.3986 15.4642 12.0324 15.0981C11.6662 14.7319 11.1696 14.5262 10.6517 14.5262ZM16.5095 12.5736C15.9917 12.5736 15.495 12.7793 15.1288 13.1455C14.7626 13.5116 14.5569 14.0083 14.5569 14.5262V26.2418C14.5569 26.7597 14.7626 27.2563 15.1288 27.6225C15.495 27.9887 15.9917 28.1944 16.5095 28.1944C17.0274 28.1944 17.524 27.9887 17.8902 27.6225C18.2564 27.2563 18.4621 26.7597 18.4621 26.2418V19.0953C19.2239 18.2666 20.1504 17.6062 21.1821 17.1563C21.8323 16.879 22.8106 16.7658 23.4901 16.9806C23.7155 17.0378 23.9163 17.1666 24.0622 17.3477C24.1637 17.4844 24.32 17.789 24.32 18.4314V26.2418C24.32 26.7597 24.5257 27.2563 24.8919 27.6225C25.258 27.9887 25.7547 28.1944 26.2726 28.1944C26.7904 28.1944 27.2871 27.9887 27.6533 27.6225C28.0194 27.2563 28.2252 26.7597 28.2252 26.2418V18.4314C28.2252 17.1231 27.8932 15.9594 27.202 15.026C26.566 14.1797 25.6758 13.5591 24.6617 13.255C22.9004 12.7024 20.9498 13.009 19.6474 13.5674C19.2301 13.746 18.8239 13.9495 18.4309 14.1766C18.349 13.7267 18.1119 13.3198 17.7607 13.0269C17.4096 12.7339 16.9668 12.5735 16.5095 12.5736ZM10.6517 8.66834C10.1338 8.66834 9.63719 8.87406 9.271 9.24024C8.90482 9.60643 8.6991 10.1031 8.6991 10.6209C8.6991 11.1388 8.90482 11.6355 9.271 12.0016C9.63719 12.3678 10.1338 12.5736 10.6517 12.5736C11.1696 12.5736 11.6662 12.3678 12.0324 12.0016C12.3986 11.6355 12.6043 11.1388 12.6043 10.6209C12.6043 10.1031 12.3986 9.60643 12.0324 9.24024C11.6662 8.87406 11.1696 8.66834 10.6517 8.66834Z" fill="white" fill-opacity="0.75"/>
</svg>
