<svg width="37" height="38" viewBox="0 0 37 38" fill="none" xmlns="http://www.w3.org/2000/svg">
<path d="M30.8332 31.3334L24.5895 25.0896M24.5895 25.0896C25.5916 24.0875 26.3866 22.8977 26.9289 21.5884C27.4713 20.279 27.7504 18.8756 27.7504 17.4584C27.7504 16.0411 27.4713 14.6377 26.9289 13.3284C26.3866 12.019 25.5916 10.8293 24.5895 9.8271C23.5873 8.82495 22.3976 8.03001 21.0882 7.48765C19.7789 6.94529 18.3755 6.66614 16.9582 6.66614C15.541 6.66614 14.1376 6.94529 12.8282 7.48765C11.5189 8.03001 10.3291 8.82496 9.32698 9.82711C7.30305 11.851 6.16602 14.5961 6.16602 17.4584C6.16602 20.3206 7.30305 23.0657 9.32698 25.0896C11.3509 27.1135 14.096 28.2506 16.9582 28.2506C19.8205 28.2506 22.5656 27.1135 24.5895 25.0896Z" stroke="#29353C" stroke-width="1.66667" stroke-linecap="round" stroke-linejoin="round"/>
</svg>
